<?xml version="1.0" encoding="utf-8"?>
<!-- Generator: Adobe Illustrator 22.0.1, SVG Export Plug-In . SVG Version: 6.00 Build 0)  -->
<svg version="1.1" id="Capa_1" xmlns="http://www.w3.org/2000/svg" xmlns:xlink="http://www.w3.org/1999/xlink" x="0px" y="0px"
	 viewBox="0 0 209.9 289" style="enable-background:new 0 0 209.9 289;" xml:space="preserve">
<style type="text/css">
	.st0{fill:#6C6206;}
</style>
<path class="st0" d="M101.4,243.5c-1.3,0.4-2.6,0.7-3.9,0.9c-0.9,0.1-1.6-0.1-2.2-0.8c-0.3-0.3-0.5-0.6-0.8-1
	c-2.5-3.3-3.8-7.1-4.1-11.2c0-0.3,0.1-0.8-0.6-0.6c-1.8,0.5-3.7,0.3-5.5-0.2c-0.4-0.1-0.6-0.1-0.8,0.3c-3.5,6.9-3.9,14.2-2.2,21.6
	c0.1,0.5,0.3,0.6,0.8,0.5c1.5-0.2,3-0.4,4.4-0.7c3.8-0.8,7.6-2,10.9-4.2c1.7-1.1,3.2-2.5,4-4.4C101.4,243.6,101.5,243.6,101.4,243.5
	C101.5,243.5,101.5,243.5,101.4,243.5z M108.2,44.7c1.3-0.3,2.6-0.7,3.9-0.9c1-0.1,1.7,0.1,2.4,0.9c0.6,0.8,1.2,1.5,1.7,2.4
	c1.8,3,2.9,6.2,3.1,9.7c0,0.3-0.2,0.8,0.5,0.6c1.8-0.5,3.7-0.4,5.5,0.2c0.5,0.1,0.7,0,0.9-0.4c3.4-6.9,3.9-14.1,2.1-21.5
	c-0.1-0.6-0.4-0.6-0.9-0.6c-1.3,0.2-2.6,0.4-3.9,0.6c-4,0.8-7.8,1.9-11.2,4.2C110.5,41.2,109,42.6,108.2,44.7
	C108,44.7,108,44.7,108.2,44.7C108.1,44.8,108.2,44.7,108.2,44.7z M109.6,113.3c-0.4,0.3-0.7,0.6-1.1,0.9c-6.5,5.6-14,8.4-22.5,8.9
	c-0.5,0-1-0.1-1.4-0.5c-1.4-1.1-2.6-2.3-3.7-3.6c-3.7-4.3-6.1-9.2-6-15.1c0-0.5-0.2-0.6-0.7-0.7c-8.7-0.7-16.2-4.2-22.8-9.7
	c-0.5-0.4-0.5-0.6-0.2-1.2c1.9-3.8,4.5-7,7.5-10c1.1-1.1,2.3-2.1,3.6-3c-0.1-0.1-0.1-0.1-0.2-0.1c-0.2-0.1-0.4-0.2-0.6-0.2
	c-5.4-2.1-9.7-5.5-12.8-10.4c-0.4-0.6-0.3-0.9,0.1-1.4c3.5-3.8,7.6-6.9,12.1-9.5c0.6-0.3,0.7-0.6,0.4-1.2c-1.2-3.1-2.2-6.3-3.1-9.6
	c-0.3-1.1-0.1-1.7,0.7-2.4c3.7-3.2,7.9-4.5,12.7-4.5c3.2,0,6.2,0.8,9.2,2c0.1,0,0.1,0,0.2,0c0-0.1,0-0.1-0.1-0.2
	c0-0.1,0-0.2-0.1-0.3C79.2,35,80.5,29,83.4,23.1c0.2-0.5,0.5-0.6,1-0.6c1.6,0,3.3,0.2,4.9,0.6c8.4,1.7,15.6,5.4,20.3,13
	c0.2,0.4,0.4,0.4,0.8,0.2c6-3.5,12.6-4.9,19.4-5.3c0.6,0,0.8,0.1,1,0.7c1.2,3.1,1.8,6.3,2,9.6c0,0.4,0.1,0.6,0.6,0.6
	c1.1,0,2.1,0.1,3.2,0.2c4.6,0.4,9,1.4,13.4,2.8c0.4,0.1,0.6,0.3,0.7,0.8c0.3,1.1,0.4,2.2,0.4,3.3c0.1,4.8-1.5,9.2-3.9,13.3
	c-1.6,2.8-3.7,5.3-6,7.7c0.1,0.3,0.4,0.4,0.6,0.6c2,1.5,3.9,3,5.5,5c0.8,1.1,1.2,2.3,1,3.7c-0.3,1.8-1,3.4-2.2,4.8
	c-2.6,3.4-6.2,5.3-10.2,6.5c-0.7,0.2-0.7,0.4-0.4,1c2.1,4.8,2.9,9.8,1.9,15c-0.5,2.8-1.8,5-4.7,5.9c-1.7,0.5-3.5,0.4-5.2,0
	c-4-0.9-7.6-3-10.9-5.3c-0.2-0.2-0.4-0.4-0.8-0.4c-0.1,0.2-0.1,0.4-0.2,0.6c-1.1,4.4-2.7,8.6-4.9,12.6c-4.4,7.8-10.6,13.9-17.9,18.9
	c-7.3,4.9-15.3,8.5-23.5,11.6c-5.7,2.2-11.5,4.3-17.2,6.3c-0.8,0.3-1,0.6-0.9,1.4c0.1,2.4-0.2,4.7-0.6,7c-1,5.8-3.1,11.1-5.5,16.4
	c-2.4,5.2-5,10.3-7.2,15.5c-4.5,11.1-5.7,22.5-3.4,34.3c1.5,7.7,4,15,7.1,22.2c0.2,0.5,0.3,0.9,0.7,1.3c8.9,9.7,19,17.7,31,23.2
	c13.6,6.2,27.9,8.4,42.7,6.1c9.5-1.5,18.3-4.7,26.6-9.5c11.2-6.4,20.6-14.9,28.6-24.8c11.9-14.7,20.1-31.3,25.7-49.2
	c4.4-13.9,6.9-28.2,7.9-42.8c0.9-12.8,0.5-25.6-1.2-38.3c-1.5-11.5-4-22.8-7.7-33.8c-0.3-1-0.7-2-1.1-3.1c-0.1,0.2-0.2,0.4-0.1,0.6
	c0.1,3.3,0.1,6.6-0.3,9.9c-1,7.7-3.6,14.8-8,21.3c-5.8,8.5-13.6,14.6-22.8,19c-0.4,0.2-0.7,0.4-0.6,0.9c0.5,3.6,1,7.2,2.8,10.5
	c1.5,2.7,3.5,4.9,6.8,5.3c1.4,0.2,2.8,0.2,4.2,0.2c2.7,0,5.3-0.1,7.9,0.6c6.5,1.7,10,6.6,12.7,12.2c0.5,1-0.1,2.1-1,2.5
	c-1,0.4-2,0.1-2.6-0.9c-0.3-0.6-0.6-1.2-1-1.8c-1.5-2.6-3.3-5-5.9-6.7c-3.2-2.1-6.8-1.9-10.4-1.8c0.8,0.4,1.6,0.7,2.4,1.1
	c4,1.6,7.8,3.7,10.7,6.9c1.7,1.9,3.1,3.9,4.2,6.2c0.5,1,0.1,2.2-0.9,2.7s-2.1,0.1-2.6-0.9c-0.2-0.3-0.4-0.7-0.6-1
	c-1.7-3-3.9-5.6-6.8-7.5c-1.6-1-3.2-1.8-5-2.4c1.4,1.3,2.8,2.5,4.1,3.7c3.5,3.1,6.2,6.7,7.4,11.3c0.3,1.3-0.2,2.4-1.3,2.8
	c-1.2,0.3-2.2-0.3-2.6-1.7c-0.6-2.4-1.7-4.6-3.3-6.5c-1.7-2-3.7-3.8-5.7-5.4c-0.1-0.1-0.2-0.3-0.4-0.2c-0.1,0.1,0.1,0.3,0.2,0.4
	c0.6,0.9,1.1,1.7,1.7,2.6c2.5,3.8,4.3,7.8,5.2,12.3c0.3,1.5-0.8,2.7-2.3,2.4c-0.9-0.2-1.4-0.8-1.6-1.7c-1-4.9-3.3-9.1-6.2-13.1
	c-0.1-0.1-0.1-0.2-0.2-0.2c-0.1,0.1-0.1,0.3,0.1,0.4c0,0.2,0.1,0.4,0.1,0.6c1.3,4.4,2.6,8.9,3.9,13.3c0.4,1.4,0,2.5-1.2,2.9
	s-2.2-0.2-2.6-1.7c-1.4-4.9-2.9-9.8-4.3-14.7c0-0.2,0-0.4-0.3-0.4c-0.1,1.1-0.1,2.1-0.2,3.2c-0.2,4.3,0.3,8.5,2.7,12.2
	c0.6,0.9,0.2,2.2-0.7,2.7c-0.9,0.6-2.1,0.3-2.7-0.6c-0.9-1.3-1.5-2.7-2.1-4.2c-1.3-3.5-1.4-7.2-1.2-10.8c0.1-1.7,0.2-3.3,0.3-5
	c-1.2,3-2.2,6-2.2,9.2c0,2.8,0.5,5.5,1.4,8.1c0.5,1.4-0.2,2.6-1.5,2.8c-1.1,0.2-1.9-0.4-2.4-1.7c-2-5.7-2.1-11.5-0.1-17.3
	c0.4-1.1,0.8-2.2,1.2-3.4c-0.2,0.1-0.2,0.1-0.3,0.1c-0.5,0.5-1,1-1.5,1.5c-2.9,3-4.1,6.5-3.5,10.6c0.3,2,0.8,4,1.5,6
	c0.1,0.4,0.3,0.8,0.2,1.2c-0.2,0.9-0.9,1.6-1.8,1.7c-0.9,0.1-1.7-0.5-2.1-1.5c-0.7-2-1.3-4.1-1.6-6.2c-0.8-5.3,0.3-10,4-14
	c1.4-1.5,2.9-3,4.3-4.4c2.3-2.4,3.1-5.2,2.1-8.4c-1.3-4.1-2.6-8.1-3.1-12.4c-0.1-0.6-0.3-0.4-0.7-0.3c-7.2,2.8-14.6,5.2-21.8,8.1
	c-7.2,3-14.2,6.3-20.6,10.9c-6.9,5-12.4,11-16.1,18.7c-0.3,0.6-0.7,1.2-0.8,2.1c3-2.9,6.3-5.2,10-6.9c4.4-2,9-3.1,13.8-3.4
	c0.6,0,1.1,0.1,1.5,0.5c1.4,1.2,2.8,2.5,4,3.9c3.2,3.8,5.4,8.1,5.7,13.2c0,0.7-0.2,1.5,0.1,1.9c0.4,0.5,1.3,0.2,2,0.3
	c8.1,1.1,15.2,4.4,21.4,9.6c0.4,0.3,0.5,0.6,0.2,1.1c-1.4,2.9-3.4,5.5-5.5,7.9c-1.7,1.9-3.6,3.5-5.6,5.1c0.1,0.1,0.1,0.1,0.1,0.2
	c0.2,0.1,0.4,0.2,0.6,0.2c5.4,2.1,9.8,5.5,12.9,10.5c0.3,0.5,0.3,0.8-0.1,1.3c-3.5,3.9-7.7,7-12.2,9.6c-0.5,0.3-0.7,0.5-0.4,1.1
	c1.3,3.4,2.4,6.8,3.2,10.3c0.1,0.5,0,0.8-0.3,1.2c-0.8,0.8-1.6,1.5-2.6,2.1c-5.1,3.2-10.5,3.7-16.2,2.2c-1.3-0.3-2.6-0.8-3.8-1.3
	c-0.1,0.1-0.1,0.1-0.1,0.1c1.8,6.6,0.4,12.8-2.5,18.8c-0.2,0.5-0.6,0.6-1.1,0.6c-1.8-0.1-3.5-0.3-5.3-0.7
	c-8.2-1.8-15.2-5.5-19.8-12.9c-0.2-0.4-0.4-0.4-0.8-0.2c-6,3.5-12.6,4.8-19.4,5.4c-0.6,0-0.8-0.1-1-0.7c-1.1-3-1.8-6.2-2-9.4
	c0-0.6-0.1-0.8-0.8-0.8c-5.5-0.2-11-1.2-16.2-2.9c-0.5-0.2-0.8-0.4-0.9-1c-0.7-2.9-0.5-5.7,0.2-8.5c1.4-5.9,4.6-10.7,8.7-15
	c0.5-0.5,0.6-0.7-0.1-1.2c-2-1.4-4-3-5.5-5c-0.8-1.1-1.2-2.3-0.9-3.7c0.3-1.9,1.1-3.5,2.3-5c2.6-3.2,6.1-5.2,10.1-6.3
	c0.6-0.2,0.7-0.3,0.5-0.9c-2.1-4.8-2.9-9.9-1.9-15.1c0.8-4.5,3.9-6.7,8.5-6.1c3,0.4,5.6,1.6,8.2,2.9c1.6,0.9,3.2,1.9,4.7,3
	c0.1-0.3,0.2-0.6,0.2-0.8c1.5-6.1,4.1-11.6,7.7-16.7c4.6-6.4,10.5-11.5,17.2-15.6c7-4.4,14.6-7.6,22.3-10.5
	c5.9-2.2,11.8-4.2,17.6-6.5c0.6-0.2,0.9-0.5,0.9-1.2c-0.1-2.4,0.2-4.9,0.6-7.3c0.9-5.3,2.7-10.3,4.8-15.3c2.3-5.3,4.9-10.5,7-16
	c4.5-11.3,5.6-22.9,3.1-34.9c-1.5-7.3-4-14.3-7-21.2c-0.5-1.2-1.1-2.2-2-3.1c-8.4-8.8-17.8-16.1-28.8-21.2c-12.2-5.7-25-8.2-38.5-7
	c-8.6,0.8-16.7,3-24.5,6.5C61.8,16.2,51.8,23.9,43,33.4c-7.8,8.4-14.1,17.7-19.5,27.8C15.2,76.9,9.8,93.6,6.7,111.1
	C5,120.5,4.1,130,3.9,139.5c-0.3,12.7,0.6,25.4,2.8,37.9c1.6,9.4,3.9,18.5,7,27.5c0.1,0.3,0.2,0.7,0.4,1c0-0.6,0-1.2,0-1.8
	c-0.2-4.6,0.1-9.1,1.2-13.6c2.7-11.7,9-21,18.3-28.3c3.9-3.1,8.2-5.6,12.7-7.7c0.3-0.1,0.7-0.2,0.6-0.7c-0.5-3.5-0.9-7.1-2.6-10.3
	c-1.8-3.5-4.4-5.6-8.4-5.7c-1.9,0-3.9-0.1-5.8-0.1c-4.5-0.1-8.4-1.6-11.6-4.8c-2.3-2.3-4-5-5.4-7.9c-0.6-1.2-0.3-2.4,0.8-2.9
	s2.2-0.1,2.8,1.2c1,1.9,2.1,3.8,3.5,5.5c3.2,3.9,8.9,5.9,13.6,4.8c-2.2-1-4.4-1.9-6.5-3c-4.8-2.6-8.2-6.4-10.6-11.3
	c-0.4-0.8-0.3-1.5,0.2-2.2s1.2-0.9,2-0.7c0.8,0.1,1.2,0.7,1.6,1.4c2.5,5.3,6.6,8.7,12,10.8c-0.1-0.4-0.4-0.5-0.7-0.7
	c-1.9-1.7-3.8-3.3-5.5-5.1c-2.6-2.8-4.4-6-5.3-9.8c-0.3-1.1,0.4-2.2,1.4-2.4c1.1-0.2,2.2,0.4,2.4,1.5c1.1,5.1,4.4,8.6,9.2,12.4
	c0-0.1,0-0.2,0-0.2c-0.3-0.5-0.7-1.1-1-1.6c-2.7-4.1-4.8-8.4-5.7-13.3c-0.1-0.3-0.1-0.6,0-0.9c0.2-0.9,1-1.6,2-1.6
	c0.9,0,1.8,0.6,2,1.7c0.9,4.7,2.9,8.8,5.6,12.7c0.2,0.2,0.2,0.5,0.6,0.6c0.1-0.3-0.1-0.6-0.1-0.9c-1.2-4.5-2.4-8.9-3.7-13.4
	c-0.4-1.3,0.1-2.4,1.3-2.8c1.2-0.3,2.2,0.3,2.6,1.7c1.2,4.4,2.4,8.7,3.6,13.1c0.2,0.7,0.4,1.4,0.6,2.1c0.2-0.8,0.3-1.5,0.4-2.3
	c0.3-4.6,0.1-9-2.5-13c-0.6-0.9-0.2-2.1,0.7-2.7c0.9-0.6,2.1-0.3,2.8,0.7c0.6,1,1.2,2.1,1.6,3.2c1.6,4,1.7,8.1,1.4,12.3
	c-0.1,1.5-0.2,3-0.3,4.5c1.3-2.9,2.3-5.9,2.4-9.1c0.1-2.8-0.5-5.5-1.3-8.1c-0.4-1.2,0.1-2.3,1.2-2.7c1.1-0.4,2.2,0.2,2.6,1.4
	c1.6,4.7,2.1,9.5,0.9,14.3c-0.5,2.2-1.4,4.3-2.1,6.5c-0.1,0.1-0.1,0.2,0,0.2l0.1-0.1c0.6-0.6,1.3-1.2,1.9-1.8
	c2.3-2.4,3.6-5.2,3.6-8.6c0-2.6-0.7-5.2-1.5-7.6c-0.4-1.3,0-2.4,1.1-2.8c1.2-0.4,2.2,0.2,2.7,1.5c0.6,1.9,1.2,3.9,1.5,6
	c0.7,5.1-0.3,9.7-3.9,13.7c-1.4,1.6-3,3-4.5,4.5c-1.1,1.2-2.1,2.5-2.6,4.1c-0.6,2.1,0,4.1,0.6,6c1,3.1,1.8,6.2,2.3,9.4
	c0.1,0.5,0,1.3,0.3,1.6c0.4,0.3,1-0.3,1.6-0.4c0.2-0.1,0.4-0.1,0.6-0.2c8.3-3.1,16.7-5.9,24.8-9.6c7.3-3.4,14.2-7.4,20.1-13
	c4.9-4.5,8.7-9.8,11.3-16C109.6,113.5,109.7,113.4,109.6,113.3C109.7,113.1,109.7,113.2,109.6,113.3z M33.6,243.3
	c0-0.2,0-0.3-0.1-0.5c-1.7-5.3-2.9-10.7-3.5-16.3c-0.6-5.5-0.5-10.9,0.3-16.3c1-6.7,3.3-13,6.1-19.1c2.3-5.1,4.9-10.1,7.1-15.3
	c2.2-5.2,3.7-10.5,4-16.2c0-0.6-0.1-0.7-0.7-0.4c-2.9,1.4-5.7,3-8.3,4.9c-7,5-12.6,11.3-16.1,19.2c-3.9,8.7-4.8,17.8-3.3,27.1
	c1.6,9.6,4.9,18.6,10.2,26.9C30.6,239.3,31.9,241.4,33.6,243.3z M163.3,129.3c0.3-0.1,0.4-0.2,0.6-0.3c6-3.1,11.4-7,15.9-12.1
	c7-7.9,10.8-17.1,11.3-27.6c0.3-5-0.2-10-1.3-14.9c-1.3-6-3.3-11.7-6.1-17.1c-2.2-4.2-4.8-8.1-7.6-11.9c-0.1-0.1-0.1-0.3-0.3-0.2
	c-0.1,0.2,0.1,0.4,0.1,0.6c0.8,2.5,1.5,5,2.1,7.5c2.9,12,2.8,23.8-1.1,35.6c-2,6.1-4.8,11.8-7.4,17.6c-2.3,5.1-4.4,10.2-5.5,15.6
	C163.6,124.5,163.3,126.8,163.3,129.3z M133.5,188.8c-2.4,0-4.5,0.3-6.6,0.8c-0.6,0.1-0.8,0.3-0.7,1c0.3,4.2-0.4,8.2-2.3,12
	c-0.5,1.1-0.5,1.1,0.7,1.3c4.4,0.8,8.1,3,11.2,6.1c0.3,0.3,0.6,0.4,1.1,0.2c6.3-2.7,11.5-6.7,15.6-12.3c1.3-1.8,1.3-1.9-0.6-3.1
	C146.1,191.3,140.1,189,133.5,188.8z M86.4,84.6c-0.9-0.2-1.7-0.3-2.5-0.5c-3.9-1-7.1-3.1-9.9-5.8c-0.3-0.2-0.4-0.5-0.9-0.3
	c-6.9,2.9-12.4,7.4-16.6,13.6c-0.3,0.5-0.2,0.7,0.2,1c3.4,2.3,7,4.2,10.9,5.4c5,1.6,10,2,15.2,0.7c0.6-0.2,0.9-0.3,0.8-1.1
	c-0.2-1.9-0.1-3.7,0.2-5.6C84.2,89.4,85.1,87,86.4,84.6z M130.7,183.5c0-0.3,0-0.7-0.1-1c-0.1-0.6-0.1-1.1-0.2-1.6
	c-1-4.7-3.7-8.3-7.1-11.5c-0.3-0.2-0.5-0.2-0.8-0.2c-2.6,0.3-5.1,0.8-7.6,1.6c-7.3,2.4-13,6.8-17,13.5c-0.3,0.5-0.4,0.8,0.1,1.3
	c1,0.9,2,2,2.7,3.2c0.4,0.7,0.6,0.6,1.1,0.1c5-4.7,10.9-7.2,17.8-7.1c2.5,0,4.4,1,5.2,3.5c0.1,0.5,0.4,0.6,0.9,0.4
	c1.2-0.4,2.4-0.5,3.7-0.7C130.7,184.9,130.7,184.9,130.7,183.5z M87.1,119.1c2.6-0.2,4.8-0.7,7.1-1.4c7.6-2.4,13.6-6.9,17.7-13.8
	c0.3-0.5,0.3-0.8-0.2-1.2c-1-0.9-1.8-1.9-2.6-2.9c-0.7-1-0.6-0.9-1.5-0.2c-4.8,4.4-10.5,6.8-17.1,6.9c-2.7,0-4.9-0.8-5.8-3.7
	c-0.1-0.3-0.3-0.5-0.7-0.3c-1.5,0.4-3,0.7-4.6,0.8c-0.4,0-0.5,0.2-0.5,0.6c0,1.2,0,2.3,0.3,3.5c1,4.7,3.6,8.3,7,11.4
	C86.6,119,87,119.1,87.1,119.1z M114.7,86.5c-0.6,3.2-1.6,6.1-3.4,8.7c-0.1,0.1-0.2,0.3,0,0.4c0.7,0.8,1,1.9,1.8,2.7
	c2.8,3.2,6.2,5.7,9.9,7.7c2.2,1.2,4.5,2.3,7,2.5c2.4,0.2,3.3-0.4,3.8-2.8c0.7-2.9,0.3-5.9-0.3-8.8c-0.4-1.7-0.9-3.4-1.8-4.9
	c-0.4-0.6-0.9-1-1.7-0.9c-1.3,0.1-2.6-0.1-3.9-0.3C122.1,90.3,118.3,88.7,114.7,86.5z M95,201.8c0.6-3.1,1.6-6,3.3-8.7
	c0.1-0.1,0.2-0.3,0-0.4c-0.7-1-1.2-2.1-2-2.9c-2.8-3-6-5.4-9.6-7.4c-2.2-1.2-4.5-2.2-7-2.6c-2.3-0.3-3.5,0.4-4,2.7
	c-0.6,2.7-0.4,5.5,0.1,8.2c0.4,1.9,0.9,3.8,1.9,5.5c0.4,0.7,0.9,1,1.7,1c3,0,5.9,0.5,8.7,1.5C90.6,199.4,92.8,200.5,95,201.8z
	 M130,87.2c3.7,0,7.1-0.9,10.2-2.8c1.9-1.2,3.5-2.7,4.3-4.8c0.4-0.9,0.3-1.6-0.4-2.4c-1.8-1.8-3.8-3.3-5.9-4.7
	c-2-1.3-4.1-2.4-6.4-3.1c-0.5-0.2-0.9-0.1-1.2,0.5c-0.6,1.1-1.3,2.1-2,3c-3.3,4.1-7.4,6.9-12.8,7.5c-0.2,0-0.6-0.1-0.6,0.4
	s-0.2,1,0.4,1.4C119.9,85.2,124.6,87.2,130,87.2z M94.5,207.2c0.1-0.6,0-0.9-0.4-1.2c-4.1-2.9-8.6-4.8-13.7-4.9
	c-4.7-0.2-9.1,1.1-12.7,4.2c-1.3,1.1-2.3,2.4-2.7,4.1c-0.1,0.5,0,0.9,0.3,1.2c0.9,1.1,1.9,2,3,2.8c2.9,2.2,6,4.2,9.5,5.4
	c0.7,0.2,1.1,0.2,1.5-0.6c3.4-5.7,8-9.6,14.9-10.4C94.7,207.8,94.4,207.4,94.5,207.2z M110.9,84.5c-0.1,0-0.1,0-0.1,0
	c-0.1,0-0.2,0.1-0.3,0.1c-2.4,1.7-5.1,2.4-8,2.5c-3.7,0.1-7.3-0.7-10.7-2c-0.6-0.2-0.9-0.2-1.3,0.4c-1.8,2.8-2.8,5.9-3,9.3
	c-0.1,2.3,0.1,4.6,1.1,6.7c0.2,0.4,0.5,0.7,1,0.8c1.5,0.2,2.9,0.1,4.4-0.2c6.5-1.4,11.6-4.6,14.8-10.5C110,89.4,110.6,87,110.9,84.5
	z M98.7,203.9c0.3-0.2,0.5-0.3,0.7-0.4c2.1-1.4,4.4-2.1,6.8-2.3c4.1-0.4,7.9,0.5,11.7,2c0.6,0.2,0.9,0.1,1.2-0.4
	c1-1.5,1.8-3.1,2.3-4.9c1-3.6,1.2-7.1-0.1-10.7c-0.4-1-0.9-1.3-1.9-1.3c-3.6-0.1-6.9,0.9-10,2.5C103.2,191.6,99.7,196.8,98.7,203.9z
	 M87.7,58c-1.3-2.8-2-5.6-1.9-8.6c0-0.3-0.1-0.4-0.3-0.5c-3-1.9-6.2-3.6-9.7-4.4c-4.5-1-8.7-0.6-12.6,2c-0.4,0.3-0.6,0.5-0.4,1
	c1.2,4.4,2.7,8.7,4.7,12.8c0.2,0.4,0.4,0.4,0.7,0.2c1.1-0.8,2.3-1.4,3.6-1.9C76.9,56.3,82.2,56.2,87.7,58z M122,230.3
	c1.3,2.8,1.9,5.6,1.9,8.5c0,0.3,0.2,0.4,0.4,0.5c3.1,2,6.4,3.7,10,4.4c4.2,0.9,8.2,0.4,11.9-1.8c0.7-0.4,0.9-0.8,0.6-1.6
	c-1.2-4-2.5-8-4.3-11.8c-0.5-1-0.5-1-1.5-0.4c-4.7,2.9-9.8,4-15.4,3.1C124.5,231,123.3,230.6,122,230.3z M122.2,207.7
	c1.2,6.1,1.4,11.9-4.8,15.7c1.2,0.8,2.4,1.5,3.6,2.1c6.5,3,12.7,2.6,18.7-1.4c0.6-0.4,0.7-0.7,0.4-1.4c-1.4-2.7-3-5.2-4.9-7.5
	c-2.3-2.8-5-5.2-8.3-6.6C125.4,208.1,123.8,207.8,122.2,207.7z M92.2,64.9c-1.5-1.1-3-1.9-4.7-2.6c-6.2-2.5-12.1-1.9-17.7,1.8
	c-0.6,0.4-0.7,0.7-0.4,1.4c0.4,0.6,0.7,1.3,1,1.9c2.5,4.2,5.4,8.1,9.6,10.8c2,1.3,4.2,2.2,6.7,2.4c0.6,0.1,0.7-0.1,0.5-0.6
	c-0.2-0.8-0.3-1.6-0.4-2.4C86.3,72.4,87.3,67.8,92.2,64.9z M147.5,49.6c0-0.3,0-0.6,0-0.9c0-0.4-0.1-0.6-0.5-0.7
	c-4.3-1.2-8.6-2-13.1-2.2c-0.6,0-0.7,0.2-0.7,0.7c-0.3,4.2-1.3,8.2-3.2,12c-0.4,0.7-0.5,1.2,0.4,1.6c0.5,0.2,1,0.7,1.4,1
	c2.3,2,1.9,1.1,1.1,3.8c-0.1,0.5-0.1,0.6,0.4,0.7c1.5,0.4,2.9,1.1,4.3,1.8c0.5,0.3,0.7,0.2,1.1-0.2c1.9-2,3.7-4.1,5.1-6.4
	C145.9,57.4,147.3,53.7,147.5,49.6z M74.6,242.4c0.3,0,0.6,0,0.9,0.1c0.8,0.2,1-0.1,1.1-0.9c0.3-4,1.3-7.9,3.1-11.6
	c0.6-1.1,0.6-1.1-0.5-1.9c-0.4-0.3-0.8-0.6-1.1-0.8c-1.9-1.5-1.9-1.5-1.2-3.8c0.1-0.4,0.2-0.6-0.3-0.7c-1.5-0.4-2.9-1.1-4.3-1.8
	c-0.5-0.3-0.8-0.3-1.2,0.2c-1.9,2-3.7,4.1-5.1,6.4c-2.3,3.6-3.7,7.5-3.7,11.9c0,0.6,0.1,0.9,0.8,1.1
	C66.8,241.4,70.6,242.1,74.6,242.4z M94.5,81.9c2.8,0.9,5.5,1.4,8.3,1.2c3.7-0.2,6.6-1.9,8.3-5.3c0.5-1,1.3-1.5,2.4-1.4
	c1.9,0.1,3.8-0.3,5.5-1c5-2.2,7.7-6.3,9.8-11c0.1-0.3,0-0.5-0.2-0.7c-1.4-1-2.9-1.9-4.6-2.3c-1.6-0.4-3.1-0.4-4.5,0.5
	c-0.4,0.2-0.6,0.5-0.7,0.9c-0.8,3.6-2.5,6.8-4.6,9.8c-1.7,2.6-4.2,3.6-7.2,3.7c-2.1,0.1-4.1-0.4-6-1.1c-0.3-0.1-0.6-0.2-0.8,0.2
	C98.8,78,96.9,80.1,94.5,81.9z M115.1,206.4c-0.2-0.1-0.3-0.2-0.4-0.2c-2.1-0.7-4.3-1.1-6.5-1.1c-4.3,0-7.7,1.5-9.7,5.6
	c-0.4,0.9-1.2,1.2-2.1,1.2c-2.1-0.1-4,0.3-5.9,1.2c-4.8,2.2-7.5,6.3-9.5,10.9c-0.2,0.4,0,0.5,0.3,0.7c1.5,1,3,1.9,4.7,2.3
	c1.5,0.4,3,0.3,4.4-0.6c0.3-0.2,0.5-0.5,0.6-0.9c0.7-3.1,2.1-5.9,3.8-8.6c1.4-2.2,3-3.9,5.6-4.5c2.5-0.5,5-0.2,7.4,0.5
	c1.5,0.4,1.5,0.5,2.4-0.9C111.4,209.7,113,207.9,115.1,206.4z M96.8,221.2c-3.5,5.7-3.2,13.5,0.6,18.7c0.3,0.4,0.5,0.4,0.9,0.3
	c2.3-0.5,4.5-1.4,6.5-2.8c3.9-2.7,5.7-6.5,6-11.2C104.9,228,100.3,226.2,96.8,221.2z M112.8,67.1l0.1-0.1c2.9-5.7,3.3-11.4,0.2-17.1
	c-1.4-2.5-0.8-2.2-3.4-1.4c-4.1,1.2-7.5,3.6-9.4,7.6C99.4,58,99,59.9,98.9,62C104.8,60.3,109.4,62.1,112.8,67.1z M105,245.8
	c-0.6,1-1.2,2-2.1,2.8c-0.4,0.4-0.3,0.6-0.1,1c1.1,1.8,2.4,3.5,3.9,4.9c4.5,4.1,9.9,6,15.8,6.9c0.4,0.1,0.6,0,0.8-0.4
	c1.5-4,2.4-8.1,1.5-12.4c-0.3-1.4-0.7-2.8-1.6-4.2c-0.7,2.6-1.5,5-2.9,7.2c-0.2,0.3-0.4,0.6-0.8,0.6
	C113.9,252,108.9,250.3,105,245.8z M86.4,43.9c0.7-2.7,1.6-5.1,2.9-7.3c0.2-0.4,0.5-0.6,1-0.5c1.7,0.1,3.3,0.3,4.9,0.7
	c3.7,0.9,7,2.7,9.4,5.7c0.5-0.7,0.9-1.4,1.4-2c1.1-1.4,1.1-1.4,0.1-2.9c-4.6-6.7-11.3-9.6-19-10.7c-0.4-0.1-0.6,0.1-0.8,0.5
	c-1.2,3.2-2,6.5-1.8,9.9C84.6,39.5,85.2,41.6,86.4,43.9z M114.9,227.2c-0.1,0.1-0.1,0.1-0.1,0.1c0,0.2-0.1,0.4-0.1,0.7
	c-0.6,4.7-2.6,8.7-6.3,11.8c-1.7,1.4-1.7,1.4-0.4,3.2c0.1,0.2,0.2,0.3,0.4,0.5c2.4,2.8,5.6,4,9.1,4.5c0.5,0.1,0.5-0.2,0.6-0.5
	c1.2-2.7,1.8-5.5,1.8-8.5C119.9,234.4,118.1,230.5,114.9,227.2z M94.8,61.1c0.1-0.1,0.1-0.2,0.1-0.3c0-0.2,0.1-0.4,0.1-0.6
	c0.6-4.7,2.7-8.7,6.4-11.8c1.6-1.4,1.6-1.4,0.4-3.1l-0.1-0.1c-2.4-3.1-5.7-4.3-9.4-4.9c-0.3-0.1-0.4,0.1-0.5,0.4
	c-0.3,0.8-0.7,1.6-0.9,2.5c-1.6,5.2-1.4,10.3,1.6,15C93,59.2,93.8,60.2,94.8,61.1z M142.7,211.8c-0.1,0-0.3,0.1-0.5,0.2
	c-0.9,0.4-1.7,0.9-2.6,1.3c-0.6,0.2-0.5,0.4-0.2,0.9c1.3,1.7,2.4,3.5,3.5,5.4c1.3,2.2,2.1,4.7,3.2,7c0.3,0.5,0.5,0.5,0.9,0.3
	c3.2-1.9,6.1-4,8.8-6.5c0.4-0.4,0.4-0.6,0-1c-2.4-2.7-5.2-4.8-8.5-6.2C145.8,212.6,144.3,212.1,142.7,211.8z M70.5,74.5
	c-0.1-0.1-0.2-0.2-0.2-0.3c-0.4-0.5-0.8-1.1-1.2-1.6c-2.4-3.3-4-7-5.5-10.8c-0.2-0.6-0.4-0.6-1-0.3c-3.1,1.9-6,4-8.7,6.5
	c-0.4,0.4-0.4,0.6-0.1,1c3.4,3.9,7.7,6.4,12.8,7.5c0.3,0.1,0.5,0.1,0.7-0.1c1-0.5,2-1,3-1.5C70.4,74.8,70.6,74.8,70.5,74.5z
	 M90.7,75.2c0,1.1,0.2,2.2,0.4,3.3c0.1,0.7,0.3,0.7,0.8,0.3c2.5-1.8,4.3-4.1,5.4-6.9c0.3-0.8,0.8-1.4,1.8-1.5c0.5-0.1,1,0.2,1.4,0.3
	c2.4,1,4.9,1.9,7.6,1.4c1.9-0.4,2.3-0.6,1.3-2.6c-1.8-4-6.7-5.3-10.5-3c-0.9,0.6-1.8,1-2.9,1.2c-1.4,0.3-2.7,0.9-3.7,2
	C91,71.3,90.8,73.2,90.7,75.2z M118.9,213.1c0-1.1-0.2-2.3-0.4-3.4c-0.1-0.7-0.3-0.6-0.8-0.3c-2.4,1.7-4.2,3.9-5.3,6.6
	c-0.9,2-1.6,2.3-3.6,1.4c-2.1-0.9-4.2-1.6-6.5-1.4c-2.9,0.3-3.2,0.9-1.8,3.3c2.2,3.7,6.7,4.7,10.4,2.3c0.7-0.5,1.5-0.8,2.3-1
	c2-0.4,3.8-1.3,4.8-3.3C118.7,216,118.9,214.6,118.9,213.1z M37.9,122C37.9,122.1,37.9,122.1,37.9,122
	C37.9,122.2,37.9,122.2,37.9,122C38,122.1,38,122.1,37.9,122L37.9,122z M210,144.5c0,79.8-47,144.5-105,144.5S0,224.3,0,144.5
	S47,0,105,0S210,64.7,210,144.5z"/>
</svg>
