<?xml version="1.0" encoding="utf-8"?>
<!-- Generator: Adobe Illustrator 22.0.1, SVG Export Plug-In . SVG Version: 6.00 Build 0)  -->
<svg version="1.1" id="Capa_1" xmlns="http://www.w3.org/2000/svg" xmlns:xlink="http://www.w3.org/1999/xlink" x="0px" y="0px"
	 viewBox="0 0 577 147" style="enable-background:new 0 0 577 147;" xml:space="preserve">
<style type="text/css">
	.st0{fill:#6B6104;}
	.st1{fill:#FFFFFF;}
</style>
<g>
	<path class="st0" d="M264.9,144.5c-6-26.8-18.8-83.3-21.5-94.5c-2.7-11.3-12.3-14.1-16.8-14.1h-44.9l-2,21.5
		c5.4-9.4,46.7-25.3,54.3-13.4c6,9.4-2.7,17.1-35.5,33.5c-18.8,9.4-26.7,19-28.8,32.2c-2.4,14.8,2.7,32.8,20.1,36.2
		c44.9,8.7,52.3-67,52.3-67c8,20.1,9.2,52.5,8,65.7H264.9z M189.8,137.1c-4.7-2.7-7.7-6.5-9.3-10.8c-0.4-1.1-0.7-2.2-0.9-3.4
		c-2.2-12.8,6.2-28.9,19.5-36.7c17.1-10,34.9-21.5,36.2-24.1c1.4,10.6,0.9,30.3-5.4,46.9C221.7,131.1,206.6,146.5,189.8,137.1z"/>
	<path class="st1" d="M230,109c6.2-16.6,6.8-36.3,5.4-46.9c-1.3,2.7-19.1,14.1-36.2,24.1c-13.4,7.8-21.8,24-19.5,36.7
		c0.2,1.2,0.5,2.3,0.9,3.4c1.5,4.4,4.5,8.2,9.3,10.8C206.6,146.5,221.7,131.1,230,109z"/>
</g>
<path class="st0" d="M269.5,15.7c4.3,0,7.8-3.5,7.8-7.8c0-4.3-3.5-7.8-7.8-7.8c-4.3,0-7.8,3.5-7.8,7.8
	C261.6,12.2,265.1,15.7,269.5,15.7z"/>
<path class="st0" d="M271.8,44.3l17.6-9.9v95.8c0,4.9,1.3,10.8,3.5,14.8h-18.3c2.3-3.9,3.5-9.9,3.5-14.8V63.4
	C278.2,54.2,275.3,47.9,271.8,44.3z"/>
<path class="st0" d="M293.8,15.7c4.3,0,7.8-3.5,7.8-7.8c0-4.3-3.5-7.8-7.8-7.8c-4.3,0-7.8,3.5-7.8,7.8
	C285.9,12.2,289.4,15.7,293.8,15.7z"/>
<path class="st0" d="M17.6,34.1L0.1,43.9c3.5,3.5,6.3,9.8,6.3,18.9v66.7c0,4.9-1.3,10.8-3.5,14.7h18.2c-2.2-3.9-3.5-9.8-3.5-14.7
	V68.8c2.1-14.4,17-26,34.1-26c17.6,0,21.7,23,20.5,40.6v44.3c0,5.3-1.6,11.9-4.5,16.8h21.3c-1.4-2.7-4.1-9.9-4.1-16.8
	c0-3.6-0.1-7.6-0.1-11.8c-0.2-14.2-0.4-30.7,1.3-39c2.9-13.5,15.2-34.1,35.3-34.1c16.1,0,19.2,21.8,18.7,32.8
	c0,5.5,0.1,11.6,0.2,17.9c0.4,18.7,0.7,39-1.7,50.8h19.4c-5.5-13-5.8-44.4-5.9-68.8c0-13.9,0-42.3-30.7-39.7C110,36.7,95,42.9,85,60
	c-0.8-8.1-9-24.2-27.1-24.2c-16.1,0-33.2,9.5-40.2,23.1V34.1z"/>
<path class="st0" d="M329.5,34.1L312,43.9c3.5,3.5,6.3,9.8,6.3,18.9v66.7c0,4.9-1.3,10.8-3.5,14.7H333c-2.2-3.9-3.5-9.8-3.5-14.7
	V68.8c2.1-14.4,17-26,34.1-26c17.6,0,21.7,23,20.5,40.6v44.3c0,5.3-1.6,11.9-4.5,16.8H401c-1.4-2.7-4.1-9.9-4.1-16.8
	c0-3.6-0.1-7.6-0.1-11.8c-0.2-14.2-0.4-30.7,1.3-39c2.9-13.5,15.2-34.1,35.3-34.1c16.1,0,19.2,21.8,18.7,32.8
	c0,5.5,0.1,11.6,0.2,17.9v0c0.4,18.7,0.7,39-1.7,50.8H470c-5.5-13-5.8-44.4-5.9-68.8c0-13.9,0-42.3-30.7-39.7
	c-11.5,0.9-26.4,7.1-36.5,24.2c-0.8-8.1-9-24.2-27.1-24.2c-16.1,0-33.2,9.5-40.2,23.1V34.1z"/>
<g>
	<path class="st0" d="M577,144.5c-6-26.8-18.8-83.3-21.5-94.5c-2.7-11.3-12.3-14.1-16.8-14.1h-44.9l-2,21.5
		c5.4-9.4,46.7-25.3,54.3-13.4c6,9.4-2.7,17.1-35.5,33.5c-18.8,9.4-26.7,19-28.8,32.2c-2.4,14.8,2.7,32.8,20.1,36.2
		c44.9,8.7,52.3-67,52.3-67c8,20.1,9.2,52.5,8,65.7H577z M501.9,137.1c-4.7-2.7-7.7-6.5-9.3-10.8c-0.4-1.1-0.7-2.2-0.9-3.4
		c-2.2-12.8,6.2-28.9,19.5-36.7c17.1-10,34.9-21.5,36.2-24.1c1.4,10.6,0.9,30.3-5.4,46.9C533.8,131.1,518.7,146.5,501.9,137.1z"/>
	<path class="st1" d="M542.2,109c6.2-16.6,6.8-36.3,5.4-46.9c-1.3,2.7-19.1,14.1-36.2,24.1c-13.4,7.8-21.8,24-19.5,36.7
		c0.2,1.2,0.5,2.3,0.9,3.4c1.5,4.4,4.5,8.2,9.3,10.8C518.7,146.5,533.8,131.1,542.2,109z"/>
</g>
</svg>
